<?xml version="1.0" encoding="utf-8"?>
<!DOCTYPE svg PUBLIC "-//W3C//DTD SVG 1.1//EN" "http://www.w3.org/Graphics/SVG/1.1/DTD/svg11.dtd">
<svg version="1.1" id="Layer_1" xmlns="http://www.w3.org/2000/svg" xmlns:xlink="http://www.w3.org/1999/xlink" x="0px" y="0px"
width="1023px" height="1023px" viewBox="0 0 1023 1023" enable-background="new 0 0 1023 1023" xml:space="preserve">
<rect x="0" y="0" width="1023" height="1023" fill="rgb(0,50,98)" /><g transform="translate(62,62)"><g transform="translate(279,0) scale(2.2142857142857,2.2142857142857)"><g transform="" style="fill: rgb(255, 255, 255);">
    <path d="M13.999-0.001v14H0.029H0v-3.431C0,4.729,6.267-0.001,13.999-0.001z"/>
</g></g><g transform="translate(310,0) scale(0.31,0.31)"><g transform="" style="fill: rgb(255, 255, 255);">
<rect width="100" height="100"/>
</g></g><g transform="translate(341,0) scale(0.31,0.31)"><g transform="" style="fill: rgb(255, 255, 255);">
<rect width="100" height="100"/>
</g></g><g transform="translate(372,0) scale(2.2142857142857,2.2142857142857)"><g transform="" style="fill: rgb(255, 255, 255);">
    <path d="M0,14V0c0,0,9.15,4.38,14,0.55C14,0.55,14.24,14,0,14z"/>
</g></g><g transform="translate(434,0) scale(0.062,0.062)"><g transform="" style="fill: rgb(255, 255, 255);">
<path d="M250,0c138.077,0,250,111.93,250,250c0,138.077-111.923,250-250,250C111.93,500,0,388.077,0,250C0,111.93,111.93,0,250,0z"
	/>
</g></g><g transform="translate(527,0) scale(2.2142857142857,2.2142857142857)"><g transform="" style="fill: rgb(255, 255, 255);">
    <path d="M13.999,0v14c0,0-9.151-4.381-14-0.551C-0.001,13.449-0.242,0,13.999,0z"/>
</g></g><g transform="translate(558,0) scale(0.31,0.31)"><g transform="" style="fill: rgb(255, 255, 255);">
<rect width="100" height="100"/>
</g></g><g transform="translate(589,0) scale(0.31,0.31)"><g transform="" style="fill: rgb(255, 255, 255);">
<rect width="100" height="100"/>
</g></g><g transform="translate(620,0) scale(2.2142857142857,2.2142857142857)"><g transform="" style="fill: rgb(255, 255, 255);">
    <path d="M0,14V0c0,0,9.15,4.38,14,0.55C14,0.55,14.24,14,0,14z"/>
</g></g><g transform="translate(279,31) scale(0.31,0.31)"><g transform="" style="fill: rgb(255, 255, 255);">
<rect width="100" height="100"/>
</g></g><g transform="translate(310,31) scale(0.31,0.31)"><g transform="" style="fill: rgb(255, 255, 255);">
<rect width="100" height="100"/>
</g></g><g transform="translate(496,31) scale(0.062,0.062)"><g transform="" style="fill: rgb(255, 255, 255);">
<path d="M250,0c138.077,0,250,111.93,250,250c0,138.077-111.923,250-250,250C111.93,500,0,388.077,0,250C0,111.93,111.93,0,250,0z"
	/>
</g></g><g transform="translate(558,31) scale(0.31,0.31)"><g transform="" style="fill: rgb(255, 255, 255);">
<rect width="100" height="100"/>
</g></g><g transform="translate(279,62) scale(2.2142857142857,2.2142857142857)"><g transform="" style="fill: rgb(255, 255, 255);">
        <path d="M0-0.001h14v13.97v0.029l-3.431,0.001C4.731,13.999,0,7.731,0-0.001z"/>
</g></g><g transform="translate(310,62) scale(0.31,0.31)"><g transform="" style="fill: rgb(255, 255, 255);">
<rect width="100" height="100"/>
</g></g><g transform="translate(341,62) scale(0.31,0.31)"><g transform="" style="fill: rgb(255, 255, 255);">
<rect width="100" height="100"/>
</g></g><g transform="translate(372,62) scale(2.2142857142857,2.2142857142857)"><g transform="" style="fill: rgb(255, 255, 255);">
    <path d="M13.999,13.999H0V0.028v-0.029h3.43C9.269-0.001,13.999,6.267,13.999,13.999z"/>
</g></g><g transform="translate(434,62) scale(2.2142857142857,2.2142857142857)"><g transform="" style="fill: rgb(255, 255, 255);">
    <path d="M13.999,0v14c0,0-9.151-4.381-14-0.551C-0.001,13.449-0.242,0,13.999,0z"/>
</g></g><g transform="translate(465,62) scale(2.2142857142857,2.2142857142857)"><g transform="" style="fill: rgb(255, 255, 255);">
    <path d="M0,14V0c0,0,9.15,4.38,14,0.55C14,0.55,14.24,14,0,14z"/>
</g></g><g transform="translate(527,62) scale(2.2142857142857,2.2142857142857)"><g transform="" style="fill: rgb(255, 255, 255);">
    <path d="M13.999,0v14c0,0-9.151-4.381-14-0.551C-0.001,13.449-0.242,0,13.999,0z"/>
</g></g><g transform="translate(558,62) scale(0.31,0.31)"><g transform="" style="fill: rgb(255, 255, 255);">
<rect width="100" height="100"/>
</g></g><g transform="translate(589,62) scale(0.31,0.31)"><g transform="" style="fill: rgb(255, 255, 255);">
<rect width="100" height="100"/>
</g></g><g transform="translate(620,62) scale(2.2142857142857,2.2142857142857)"><g transform="" style="fill: rgb(255, 255, 255);">
    <path d="M0,14V0c0,0,9.15,4.38,14,0.55C14,0.55,14.24,14,0,14z"/>
</g></g><g transform="translate(372,93) scale(2.2142857142857,2.2142857142857)"><g transform="" style="fill: rgb(255, 255, 255);">
        <path d="M0-0.001h14v13.97v0.029l-3.431,0.001C4.731,13.999,0,7.731,0-0.001z"/>
</g></g><g transform="translate(403,93) scale(2.2142857142857,2.2142857142857)"><g transform="" style="fill: rgb(255, 255, 255);">
    <path d="M0,14V0c0,0,9.15,4.38,14,0.55C14,0.55,14.24,14,0,14z"/>
</g></g><g transform="translate(496,93) scale(0.062,0.062)"><g transform="" style="fill: rgb(255, 255, 255);">
<path d="M250,0c138.077,0,250,111.93,250,250c0,138.077-111.923,250-250,250C111.93,500,0,388.077,0,250C0,111.93,111.93,0,250,0z"
	/>
</g></g><g transform="translate(558,93) scale(0.31,0.31)"><g transform="" style="fill: rgb(255, 255, 255);">
<rect width="100" height="100"/>
</g></g><g transform="translate(279,124) scale(2.2142857142857,2.2142857142857)"><g transform="" style="fill: rgb(255, 255, 255);">
    <path d="M13.999-0.001v14H0.029H0v-3.431C0,4.729,6.267-0.001,13.999-0.001z"/>
</g></g><g transform="translate(310,124) scale(0.31,0.31)"><g transform="" style="fill: rgb(255, 255, 255);">
<rect width="100" height="100"/>
</g></g><g transform="translate(341,124) scale(2.2142857142857,2.2142857142857)"><g transform="" style="fill: rgb(255, 255, 255);">
    <path d="M13.999,13.999H0V0.028v-0.029h3.43C9.269-0.001,13.999,6.267,13.999,13.999z"/>
</g></g><g transform="translate(558,124) scale(0.31,0.31)"><g transform="" style="fill: rgb(255, 255, 255);">
<rect width="100" height="100"/>
</g></g><g transform="translate(248,155) scale(2.2142857142857,2.2142857142857)"><g transform="" style="fill: rgb(255, 255, 255);">
    <path d="M13.999-0.001v14H0.029H0v-3.431C0,4.729,6.267-0.001,13.999-0.001z"/>
</g></g><g transform="translate(279,155) scale(2.2142857142857,2.2142857142857)"><g transform="" style="fill: rgb(255, 255, 255);">
    <path d="M0,14V0h13.971H14v3.43C14,9.27,7.732,14,0,14z"/>
</g></g><g transform="translate(341,155) scale(2.2142857142857,2.2142857142857)"><g transform="" style="fill: rgb(255, 255, 255);">
        <path d="M0-0.001h14v13.97v0.029l-3.431,0.001C4.731,13.999,0,7.731,0-0.001z"/>
</g></g><g transform="translate(372,155) scale(2.2142857142857,2.2142857142857)"><g transform="" style="fill: rgb(255, 255, 255);">
    <path d="M13.999,13.999H0V0.028v-0.029h3.43C9.269-0.001,13.999,6.267,13.999,13.999z"/>
</g></g><g transform="translate(465,155) scale(2.2142857142857,2.2142857142857)"><g transform="" style="fill: rgb(255, 255, 255);">
    <path d="M13.999,0v14c0,0-9.151-4.381-14-0.551C-0.001,13.449-0.242,0,13.999,0z"/>
</g></g><g transform="translate(496,155) scale(2.2142857142857,2.2142857142857)"><g transform="" style="fill: rgb(255, 255, 255);">
    <path d="M13.999,13.999H0V0.028v-0.029h3.43C9.269-0.001,13.999,6.267,13.999,13.999z"/>
</g></g><g transform="translate(558,155) scale(0.31,0.31)"><g transform="" style="fill: rgb(255, 255, 255);">
<rect width="100" height="100"/>
</g></g><g transform="translate(589,155) scale(2.2142857142857,2.2142857142857)"><g transform="" style="fill: rgb(255, 255, 255);">
    <path d="M0,14V0c0,0,9.15,4.38,14,0.55C14,0.55,14.24,14,0,14z"/>
</g></g><g transform="translate(248,186) scale(2.2142857142857,2.2142857142857)"><g transform="" style="fill: rgb(255, 255, 255);">
    <path d="M-0.001,0l14,0c0,0-4.381,9.151-0.551,14C13.448,14-0.001,14.24-0.001,0z"/>
</g></g><g transform="translate(310,186) scale(2.2142857142857,2.2142857142857)"><g transform="" style="fill: rgb(255, 255, 255);">
    <path d="M14,14H0c0,0,4.38-9.15,0.55-14C0.55,0,14-0.24,14,14z"/>
</g></g><g transform="translate(372,186) scale(2.2142857142857,2.2142857142857)"><g transform="" style="fill: rgb(255, 255, 255);">
    <path d="M-0.001,0l14,0c0,0-4.381,9.151-0.551,14C13.448,14-0.001,14.24-0.001,0z"/>
</g></g><g transform="translate(434,186) scale(0.062,0.062)"><g transform="" style="fill: rgb(255, 255, 255);">
<path d="M250,0c138.077,0,250,111.93,250,250c0,138.077-111.923,250-250,250C111.93,500,0,388.077,0,250C0,111.93,111.93,0,250,0z"
	/>
</g></g><g transform="translate(496,186) scale(0.31,0.31)"><g transform="" style="fill: rgb(255, 255, 255);">
<rect width="100" height="100"/>
</g></g><g transform="translate(558,186) scale(2.2142857142857,2.2142857142857)"><g transform="" style="fill: rgb(255, 255, 255);">
    <path d="M-0.001,0l14,0c0,0-4.381,9.151-0.551,14C13.448,14-0.001,14.24-0.001,0z"/>
</g></g><g transform="translate(620,186) scale(2.2142857142857,2.2142857142857)"><g transform="" style="fill: rgb(255, 255, 255);">
    <path d="M14,14H0c0,0,4.38-9.15,0.55-14C0.55,0,14-0.24,14,14z"/>
</g></g><g transform="translate(310,217) scale(0.31,0.31)"><g transform="" style="fill: rgb(255, 255, 255);">
<rect width="100" height="100"/>
</g></g><g transform="translate(341,217) scale(2.2142857142857,2.2142857142857)"><g transform="" style="fill: rgb(255, 255, 255);">
    <path d="M13.999,13.999H0V0.028v-0.029h3.43C9.269-0.001,13.999,6.267,13.999,13.999z"/>
</g></g><g transform="translate(403,217) scale(0.062,0.062)"><g transform="" style="fill: rgb(255, 255, 255);">
<path d="M250,0c138.077,0,250,111.93,250,250c0,138.077-111.923,250-250,250C111.93,500,0,388.077,0,250C0,111.93,111.93,0,250,0z"
	/>
</g></g><g transform="translate(465,217) scale(2.2142857142857,2.2142857142857)"><g transform="" style="fill: rgb(255, 255, 255);">
    <path d="M13.999,0v14c0,0-9.151-4.381-14-0.551C-0.001,13.449-0.242,0,13.999,0z"/>
</g></g><g transform="translate(496,217) scale(0.31,0.31)"><g transform="" style="fill: rgb(255, 255, 255);">
<rect width="100" height="100"/>
</g></g><g transform="translate(527,217) scale(2.2142857142857,2.2142857142857)"><g transform="" style="fill: rgb(255, 255, 255);">
    <path d="M0,14V0c0,0,9.15,4.38,14,0.55C14,0.55,14.24,14,0,14z"/>
</g></g><g transform="translate(620,217) scale(2.2142857142857,2.2142857142857)"><g transform="" style="fill: rgb(255, 255, 255);">
    <path d="M-0.001,0l14,0c0,0-4.381,9.151-0.551,14C13.448,14-0.001,14.24-0.001,0z"/>
</g></g><g transform="translate(0,248) scale(2.2142857142857,2.2142857142857)"><g transform="" style="fill: rgb(255, 255, 255);">
    <path d="M14,14H0c0,0,4.38-9.15,0.55-14C0.55,0,14-0.24,14,14z"/>
</g></g><g transform="translate(93,248) scale(0.062,0.062)"><g transform="" style="fill: rgb(255, 255, 255);">
<path d="M250,0c138.077,0,250,111.93,250,250c0,138.077-111.923,250-250,250C111.93,500,0,388.077,0,250C0,111.93,111.93,0,250,0z"
	/>
</g></g><g transform="translate(155,248) scale(2.2142857142857,2.2142857142857)"><g transform="" style="fill: rgb(255, 255, 255);">
    <path d="M13.999-0.001v14H0.029H0v-3.431C0,4.729,6.267-0.001,13.999-0.001z"/>
</g></g><g transform="translate(186,248) scale(2.2142857142857,2.2142857142857)"><g transform="" style="fill: rgb(255, 255, 255);">
    <path d="M0,14V0c0,0,9.15,4.38,14,0.55C14,0.55,14.24,14,0,14z"/>
</g></g><g transform="translate(248,248) scale(2.2142857142857,2.2142857142857)"><g transform="" style="fill: rgb(255, 255, 255);">
    <path d="M13.999-0.001v14H0.029H0v-3.431C0,4.729,6.267-0.001,13.999-0.001z"/>
</g></g><g transform="translate(279,248) scale(0.31,0.31)"><g transform="" style="fill: rgb(255, 255, 255);">
<rect width="100" height="100"/>
</g></g><g transform="translate(310,248) scale(0.31,0.31)"><g transform="" style="fill: rgb(255, 255, 255);">
<rect width="100" height="100"/>
</g></g><g transform="translate(341,248) scale(2.2142857142857,2.2142857142857)"><g transform="" style="fill: rgb(255, 255, 255);">
    <path d="M0,14V0h13.971H14v3.43C14,9.27,7.732,14,0,14z"/>
</g></g><g transform="translate(434,248) scale(0.062,0.062)"><g transform="" style="fill: rgb(255, 255, 255);">
<path d="M250,0c138.077,0,250,111.93,250,250c0,138.077-111.923,250-250,250C111.93,500,0,388.077,0,250C0,111.93,111.93,0,250,0z"
	/>
</g></g><g transform="translate(496,248) scale(0.31,0.31)"><g transform="" style="fill: rgb(255, 255, 255);">
<rect width="100" height="100"/>
</g></g><g transform="translate(651,248) scale(2.2142857142857,2.2142857142857)"><g transform="" style="fill: rgb(255, 255, 255);">
    <path d="M14,14H0c0,0,4.38-9.15,0.55-14C0.55,0,14-0.24,14,14z"/>
</g></g><g transform="translate(713,248) scale(0.062,0.062)"><g transform="" style="fill: rgb(255, 255, 255);">
<path d="M250,0c138.077,0,250,111.93,250,250c0,138.077-111.923,250-250,250C111.93,500,0,388.077,0,250C0,111.93,111.93,0,250,0z"
	/>
</g></g><g transform="translate(0,279) scale(0.31,0.31)"><g transform="" style="fill: rgb(255, 255, 255);">
<rect width="100" height="100"/>
</g></g><g transform="translate(62,279) scale(2.2142857142857,2.2142857142857)"><g transform="" style="fill: rgb(255, 255, 255);">
    <path d="M14,14H0c0,0,4.38-9.15,0.55-14C0.55,0,14-0.24,14,14z"/>
</g></g><g transform="translate(124,279) scale(2.2142857142857,2.2142857142857)"><g transform="" style="fill: rgb(255, 255, 255);">
    <path d="M13.999,0v14c0,0-9.151-4.381-14-0.551C-0.001,13.449-0.242,0,13.999,0z"/>
</g></g><g transform="translate(155,279) scale(2.2142857142857,2.2142857142857)"><g transform="" style="fill: rgb(255, 255, 255);">
    <path d="M0,14V0h13.971H14v3.43C14,9.27,7.732,14,0,14z"/>
</g></g><g transform="translate(217,279) scale(2.2142857142857,2.2142857142857)"><g transform="" style="fill: rgb(255, 255, 255);">
    <path d="M13.999-0.001v14H0.029H0v-3.431C0,4.729,6.267-0.001,13.999-0.001z"/>
</g></g><g transform="translate(248,279) scale(0.31,0.31)"><g transform="" style="fill: rgb(255, 255, 255);">
<rect width="100" height="100"/>
</g></g><g transform="translate(403,279) scale(2.2142857142857,2.2142857142857)"><g transform="" style="fill: rgb(255, 255, 255);">
    <path d="M14,14H0c0,0,4.38-9.15,0.55-14C0.55,0,14-0.24,14,14z"/>
</g></g><g transform="translate(465,279) scale(2.2142857142857,2.2142857142857)"><g transform="" style="fill: rgb(255, 255, 255);">
    <path d="M13.999-0.001v14H0.029H0v-3.431C0,4.729,6.267-0.001,13.999-0.001z"/>
</g></g><g transform="translate(496,279) scale(0.31,0.31)"><g transform="" style="fill: rgb(255, 255, 255);">
<rect width="100" height="100"/>
</g></g><g transform="translate(527,279) scale(2.2142857142857,2.2142857142857)"><g transform="" style="fill: rgb(255, 255, 255);">
    <path d="M0,14V0c0,0,9.15,4.38,14,0.55C14,0.55,14.24,14,0,14z"/>
</g></g><g transform="translate(620,279) scale(2.2142857142857,2.2142857142857)"><g transform="" style="fill: rgb(255, 255, 255);">
    <path d="M13.999,0v14c0,0-9.151-4.381-14-0.551C-0.001,13.449-0.242,0,13.999,0z"/>
</g></g><g transform="translate(651,279) scale(0.31,0.31)"><g transform="" style="fill: rgb(255, 255, 255);">
<rect width="100" height="100"/>
</g></g><g transform="translate(682,279) scale(2.2142857142857,2.2142857142857)"><g transform="" style="fill: rgb(255, 255, 255);">
    <path d="M0,14V0c0,0,9.15,4.38,14,0.55C14,0.55,14.24,14,0,14z"/>
</g></g><g transform="translate(775,279) scale(2.2142857142857,2.2142857142857)"><g transform="" style="fill: rgb(255, 255, 255);">
    <path d="M14,14H0c0,0,4.38-9.15,0.55-14C0.55,0,14-0.24,14,14z"/>
</g></g><g transform="translate(868,279) scale(0.062,0.062)"><g transform="" style="fill: rgb(255, 255, 255);">
<path d="M250,0c138.077,0,250,111.93,250,250c0,138.077-111.923,250-250,250C111.93,500,0,388.077,0,250C0,111.93,111.93,0,250,0z"
	/>
</g></g><g transform="translate(0,310) scale(0.31,0.31)"><g transform="" style="fill: rgb(255, 255, 255);">
<rect width="100" height="100"/>
</g></g><g transform="translate(31,310) scale(0.31,0.31)"><g transform="" style="fill: rgb(255, 255, 255);">
<rect width="100" height="100"/>
</g></g><g transform="translate(62,310) scale(0.31,0.31)"><g transform="" style="fill: rgb(255, 255, 255);">
<rect width="100" height="100"/>
</g></g><g transform="translate(93,310) scale(2.2142857142857,2.2142857142857)"><g transform="" style="fill: rgb(255, 255, 255);">
    <path d="M0,14V0c0,0,9.15,4.38,14,0.55C14,0.55,14.24,14,0,14z"/>
</g></g><g transform="translate(186,310) scale(2.2142857142857,2.2142857142857)"><g transform="" style="fill: rgb(255, 255, 255);">
    <path d="M13.999,0v14c0,0-9.151-4.381-14-0.551C-0.001,13.449-0.242,0,13.999,0z"/>
</g></g><g transform="translate(217,310) scale(0.31,0.31)"><g transform="" style="fill: rgb(255, 255, 255);">
<rect width="100" height="100"/>
</g></g><g transform="translate(248,310) scale(0.31,0.31)"><g transform="" style="fill: rgb(255, 255, 255);">
<rect width="100" height="100"/>
</g></g><g transform="translate(279,310) scale(2.2142857142857,2.2142857142857)"><g transform="" style="fill: rgb(255, 255, 255);">
    <path d="M0,14V0c0,0,9.15,4.38,14,0.55C14,0.55,14.24,14,0,14z"/>
</g></g><g transform="translate(341,310) scale(2.2142857142857,2.2142857142857)"><g transform="" style="fill: rgb(255, 255, 255);">
    <path d="M14,14H0c0,0,4.38-9.15,0.55-14C0.55,0,14-0.24,14,14z"/>
</g></g><g transform="translate(403,310) scale(0.31,0.31)"><g transform="" style="fill: rgb(255, 255, 255);">
<rect width="100" height="100"/>
</g></g><g transform="translate(434,310) scale(0.31,0.31)"><g transform="" style="fill: rgb(255, 255, 255);">
<rect width="100" height="100"/>
</g></g><g transform="translate(465,310) scale(2.2142857142857,2.2142857142857)"><g transform="" style="fill: rgb(255, 255, 255);">
    <path d="M0,14V0h13.971H14v3.43C14,9.27,7.732,14,0,14z"/>
</g></g><g transform="translate(589,310) scale(2.2142857142857,2.2142857142857)"><g transform="" style="fill: rgb(255, 255, 255);">
    <path d="M14,14H0c0,0,4.38-9.15,0.55-14C0.55,0,14-0.24,14,14z"/>
</g></g><g transform="translate(651,310) scale(0.31,0.31)"><g transform="" style="fill: rgb(255, 255, 255);">
<rect width="100" height="100"/>
</g></g><g transform="translate(775,310) scale(2.2142857142857,2.2142857142857)"><g transform="" style="fill: rgb(255, 255, 255);">
        <path d="M0-0.001h14v13.97v0.029l-3.431,0.001C4.731,13.999,0,7.731,0-0.001z"/>
</g></g><g transform="translate(806,310) scale(0.31,0.31)"><g transform="" style="fill: rgb(255, 255, 255);">
<rect width="100" height="100"/>
</g></g><g transform="translate(837,310) scale(2.2142857142857,2.2142857142857)"><g transform="" style="fill: rgb(255, 255, 255);">
    <path d="M13.999,13.999H0V0.028v-0.029h3.43C9.269-0.001,13.999,6.267,13.999,13.999z"/>
</g></g><g transform="translate(0,341) scale(2.2142857142857,2.2142857142857)"><g transform="" style="fill: rgb(255, 255, 255);">
        <path d="M0-0.001h14v13.97v0.029l-3.431,0.001C4.731,13.999,0,7.731,0-0.001z"/>
</g></g><g transform="translate(31,341) scale(2.2142857142857,2.2142857142857)"><g transform="" style="fill: rgb(255, 255, 255);">
    <path d="M0,14V0h13.971H14v3.43C14,9.27,7.732,14,0,14z"/>
</g></g><g transform="translate(124,341) scale(2.2142857142857,2.2142857142857)"><g transform="" style="fill: rgb(255, 255, 255);">
    <path d="M13.999-0.001v14H0.029H0v-3.431C0,4.729,6.267-0.001,13.999-0.001z"/>
</g></g><g transform="translate(155,341) scale(2.2142857142857,2.2142857142857)"><g transform="" style="fill: rgb(255, 255, 255);">
    <path d="M0,14V0c0,0,9.15,4.38,14,0.55C14,0.55,14.24,14,0,14z"/>
</g></g><g transform="translate(217,341) scale(0.31,0.31)"><g transform="" style="fill: rgb(255, 255, 255);">
<rect width="100" height="100"/>
</g></g><g transform="translate(341,341) scale(0.31,0.31)"><g transform="" style="fill: rgb(255, 255, 255);">
<rect width="100" height="100"/>
</g></g><g transform="translate(372,341) scale(0.31,0.31)"><g transform="" style="fill: rgb(255, 255, 255);">
<rect width="100" height="100"/>
</g></g><g transform="translate(403,341) scale(2.2142857142857,2.2142857142857)"><g transform="" style="fill: rgb(255, 255, 255);">
    <path d="M0,14V0h13.971H14v3.43C14,9.27,7.732,14,0,14z"/>
</g></g><g transform="translate(496,341) scale(2.2142857142857,2.2142857142857)"><g transform="" style="fill: rgb(255, 255, 255);">
    <path d="M14,14H0c0,0,4.38-9.15,0.55-14C0.55,0,14-0.24,14,14z"/>
</g></g><g transform="translate(558,341) scale(2.2142857142857,2.2142857142857)"><g transform="" style="fill: rgb(255, 255, 255);">
    <path d="M13.999,0v14c0,0-9.151-4.381-14-0.551C-0.001,13.449-0.242,0,13.999,0z"/>
</g></g><g transform="translate(589,341) scale(0.31,0.31)"><g transform="" style="fill: rgb(255, 255, 255);">
<rect width="100" height="100"/>
</g></g><g transform="translate(620,341) scale(0.31,0.31)"><g transform="" style="fill: rgb(255, 255, 255);">
<rect width="100" height="100"/>
</g></g><g transform="translate(651,341) scale(0.31,0.31)"><g transform="" style="fill: rgb(255, 255, 255);">
<rect width="100" height="100"/>
</g></g><g transform="translate(713,341) scale(2.2142857142857,2.2142857142857)"><g transform="" style="fill: rgb(255, 255, 255);">
    <path d="M13.999,0v14c0,0-9.151-4.381-14-0.551C-0.001,13.449-0.242,0,13.999,0z"/>
</g></g><g transform="translate(744,341) scale(2.2142857142857,2.2142857142857)"><g transform="" style="fill: rgb(255, 255, 255);">
    <path d="M0,14V0c0,0,9.15,4.38,14,0.55C14,0.55,14.24,14,0,14z"/>
</g></g><g transform="translate(806,341) scale(2.2142857142857,2.2142857142857)"><g transform="" style="fill: rgb(255, 255, 255);">
        <path d="M0-0.001h14v13.97v0.029l-3.431,0.001C4.731,13.999,0,7.731,0-0.001z"/>
</g></g><g transform="translate(837,341) scale(0.31,0.31)"><g transform="" style="fill: rgb(255, 255, 255);">
<rect width="100" height="100"/>
</g></g><g transform="translate(62,372) scale(2.2142857142857,2.2142857142857)"><g transform="" style="fill: rgb(255, 255, 255);">
    <path d="M13.999,0v14c0,0-9.151-4.381-14-0.551C-0.001,13.449-0.242,0,13.999,0z"/>
</g></g><g transform="translate(93,372) scale(0.31,0.31)"><g transform="" style="fill: rgb(255, 255, 255);">
<rect width="100" height="100"/>
</g></g><g transform="translate(124,372) scale(0.31,0.31)"><g transform="" style="fill: rgb(255, 255, 255);">
<rect width="100" height="100"/>
</g></g><g transform="translate(186,372) scale(2.2142857142857,2.2142857142857)"><g transform="" style="fill: rgb(255, 255, 255);">
    <path d="M13.999,0v14c0,0-9.151-4.381-14-0.551C-0.001,13.449-0.242,0,13.999,0z"/>
</g></g><g transform="translate(217,372) scale(0.31,0.31)"><g transform="" style="fill: rgb(255, 255, 255);">
<rect width="100" height="100"/>
</g></g><g transform="translate(248,372) scale(0.31,0.31)"><g transform="" style="fill: rgb(255, 255, 255);">
<rect width="100" height="100"/>
</g></g><g transform="translate(279,372) scale(2.2142857142857,2.2142857142857)"><g transform="" style="fill: rgb(255, 255, 255);">
    <path d="M13.999,13.999H0V0.028v-0.029h3.43C9.269-0.001,13.999,6.267,13.999,13.999z"/>
</g></g><g transform="translate(341,372) scale(0.31,0.31)"><g transform="" style="fill: rgb(255, 255, 255);">
<rect width="100" height="100"/>
</g></g><g transform="translate(434,372) scale(2.2142857142857,2.2142857142857)"><g transform="" style="fill: rgb(255, 255, 255);">
    <path d="M13.999-0.001v14H0.029H0v-3.431C0,4.729,6.267-0.001,13.999-0.001z"/>
</g></g><g transform="translate(465,372) scale(0.31,0.31)"><g transform="" style="fill: rgb(255, 255, 255);">
<rect width="100" height="100"/>
</g></g><g transform="translate(496,372) scale(0.31,0.31)"><g transform="" style="fill: rgb(255, 255, 255);">
<rect width="100" height="100"/>
</g></g><g transform="translate(527,372) scale(2.2142857142857,2.2142857142857)"><g transform="" style="fill: rgb(255, 255, 255);">
    <path d="M13.999,13.999H0V0.028v-0.029h3.43C9.269-0.001,13.999,6.267,13.999,13.999z"/>
</g></g><g transform="translate(589,372) scale(0.31,0.31)"><g transform="" style="fill: rgb(255, 255, 255);">
<rect width="100" height="100"/>
</g></g><g transform="translate(651,372) scale(2.2142857142857,2.2142857142857)"><g transform="" style="fill: rgb(255, 255, 255);">
        <path d="M0-0.001h14v13.97v0.029l-3.431,0.001C4.731,13.999,0,7.731,0-0.001z"/>
</g></g><g transform="translate(682,372) scale(2.2142857142857,2.2142857142857)"><g transform="" style="fill: rgb(255, 255, 255);">
    <path d="M0,14V0c0,0,9.15,4.38,14,0.55C14,0.55,14.24,14,0,14z"/>
</g></g><g transform="translate(775,372) scale(0.062,0.062)"><g transform="" style="fill: rgb(255, 255, 255);">
<path d="M250,0c138.077,0,250,111.93,250,250c0,138.077-111.923,250-250,250C111.93,500,0,388.077,0,250C0,111.93,111.93,0,250,0z"
	/>
</g></g><g transform="translate(837,372) scale(2.2142857142857,2.2142857142857)"><g transform="" style="fill: rgb(255, 255, 255);">
        <path d="M0-0.001h14v13.97v0.029l-3.431,0.001C4.731,13.999,0,7.731,0-0.001z"/>
</g></g><g transform="translate(868,372) scale(2.2142857142857,2.2142857142857)"><g transform="" style="fill: rgb(255, 255, 255);">
    <path d="M0,14V0c0,0,9.15,4.38,14,0.55C14,0.55,14.24,14,0,14z"/>
</g></g><g transform="translate(93,403) scale(0.31,0.31)"><g transform="" style="fill: rgb(255, 255, 255);">
<rect width="100" height="100"/>
</g></g><g transform="translate(124,403) scale(0.31,0.31)"><g transform="" style="fill: rgb(255, 255, 255);">
<rect width="100" height="100"/>
</g></g><g transform="translate(155,403) scale(2.2142857142857,2.2142857142857)"><g transform="" style="fill: rgb(255, 255, 255);">
    <path d="M0,14V0c0,0,9.15,4.38,14,0.55C14,0.55,14.24,14,0,14z"/>
</g></g><g transform="translate(217,403) scale(2.2142857142857,2.2142857142857)"><g transform="" style="fill: rgb(255, 255, 255);">
    <path d="M-0.001,0l14,0c0,0-4.381,9.151-0.551,14C13.448,14-0.001,14.24-0.001,0z"/>
</g></g><g transform="translate(279,403) scale(2.2142857142857,2.2142857142857)"><g transform="" style="fill: rgb(255, 255, 255);">
    <path d="M-0.001,0l14,0c0,0-4.381,9.151-0.551,14C13.448,14-0.001,14.24-0.001,0z"/>
</g></g><g transform="translate(341,403) scale(2.2142857142857,2.2142857142857)"><g transform="" style="fill: rgb(255, 255, 255);">
    <path d="M-0.001,0l14,0c0,0-4.381,9.151-0.551,14C13.448,14-0.001,14.24-0.001,0z"/>
</g></g><g transform="translate(403,403) scale(2.2142857142857,2.2142857142857)"><g transform="" style="fill: rgb(255, 255, 255);">
    <path d="M13.999-0.001v14H0.029H0v-3.431C0,4.729,6.267-0.001,13.999-0.001z"/>
</g></g><g transform="translate(434,403) scale(0.31,0.31)"><g transform="" style="fill: rgb(255, 255, 255);">
<rect width="100" height="100"/>
</g></g><g transform="translate(465,403) scale(0.31,0.31)"><g transform="" style="fill: rgb(255, 255, 255);">
<rect width="100" height="100"/>
</g></g><g transform="translate(496,403) scale(0.31,0.31)"><g transform="" style="fill: rgb(255, 255, 255);">
<rect width="100" height="100"/>
</g></g><g transform="translate(527,403) scale(0.31,0.31)"><g transform="" style="fill: rgb(255, 255, 255);">
<rect width="100" height="100"/>
</g></g><g transform="translate(558,403) scale(0.31,0.31)"><g transform="" style="fill: rgb(255, 255, 255);">
<rect width="100" height="100"/>
</g></g><g transform="translate(589,403) scale(0.31,0.31)"><g transform="" style="fill: rgb(255, 255, 255);">
<rect width="100" height="100"/>
</g></g><g transform="translate(620,403) scale(2.2142857142857,2.2142857142857)"><g transform="" style="fill: rgb(255, 255, 255);">
    <path d="M13.999,13.999H0V0.028v-0.029h3.43C9.269-0.001,13.999,6.267,13.999,13.999z"/>
</g></g><g transform="translate(713,403) scale(0.062,0.062)"><g transform="" style="fill: rgb(255, 255, 255);">
<path d="M250,0c138.077,0,250,111.93,250,250c0,138.077-111.923,250-250,250C111.93,500,0,388.077,0,250C0,111.93,111.93,0,250,0z"
	/>
</g></g><g transform="translate(0,434) scale(2.2142857142857,2.2142857142857)"><g transform="" style="fill: rgb(255, 255, 255);">
    <path d="M13.999-0.001v14H0.029H0v-3.431C0,4.729,6.267-0.001,13.999-0.001z"/>
</g></g><g transform="translate(31,434) scale(2.2142857142857,2.2142857142857)"><g transform="" style="fill: rgb(255, 255, 255);">
    <path d="M13.999,13.999H0V0.028v-0.029h3.43C9.269-0.001,13.999,6.267,13.999,13.999z"/>
</g></g><g transform="translate(93,434) scale(2.2142857142857,2.2142857142857)"><g transform="" style="fill: rgb(255, 255, 255);">
    <path d="M-0.001,0l14,0c0,0-4.381,9.151-0.551,14C13.448,14-0.001,14.24-0.001,0z"/>
</g></g><g transform="translate(186,434) scale(0.062,0.062)"><g transform="" style="fill: rgb(255, 255, 255);">
<path d="M250,0c138.077,0,250,111.93,250,250c0,138.077-111.923,250-250,250C111.93,500,0,388.077,0,250C0,111.93,111.93,0,250,0z"
	/>
</g></g><g transform="translate(248,434) scale(0.062,0.062)"><g transform="" style="fill: rgb(255, 255, 255);">
<path d="M250,0c138.077,0,250,111.93,250,250c0,138.077-111.923,250-250,250C111.93,500,0,388.077,0,250C0,111.93,111.93,0,250,0z"
	/>
</g></g><g transform="translate(310,434) scale(2.2142857142857,2.2142857142857)"><g transform="" style="fill: rgb(255, 255, 255);">
    <path d="M14,14H0c0,0,4.38-9.15,0.55-14C0.55,0,14-0.24,14,14z"/>
</g></g><g transform="translate(372,434) scale(2.2142857142857,2.2142857142857)"><g transform="" style="fill: rgb(255, 255, 255);">
    <path d="M13.999-0.001v14H0.029H0v-3.431C0,4.729,6.267-0.001,13.999-0.001z"/>
</g></g><g transform="translate(403,434) scale(0.31,0.31)"><g transform="" style="fill: rgb(255, 255, 255);">
<rect width="100" height="100"/>
</g></g><g transform="translate(434,434) scale(2.2142857142857,2.2142857142857)"><g transform="" style="fill: rgb(255, 255, 255);">
    <path d="M0,14V0h13.971H14v3.43C14,9.27,7.732,14,0,14z"/>
</g></g><g transform="translate(496,434) scale(0.31,0.31)"><g transform="" style="fill: rgb(255, 255, 255);">
<rect width="100" height="100"/>
</g></g><g transform="translate(620,434) scale(0.31,0.31)"><g transform="" style="fill: rgb(255, 255, 255);">
<rect width="100" height="100"/>
</g></g><g transform="translate(651,434) scale(0.31,0.31)"><g transform="" style="fill: rgb(255, 255, 255);">
<rect width="100" height="100"/>
</g></g><g transform="translate(682,434) scale(2.2142857142857,2.2142857142857)"><g transform="" style="fill: rgb(255, 255, 255);">
    <path d="M0,14V0c0,0,9.15,4.38,14,0.55C14,0.55,14.24,14,0,14z"/>
</g></g><g transform="translate(775,434) scale(2.2142857142857,2.2142857142857)"><g transform="" style="fill: rgb(255, 255, 255);">
    <path d="M13.999-0.001v14H0.029H0v-3.431C0,4.729,6.267-0.001,13.999-0.001z"/>
</g></g><g transform="translate(806,434) scale(0.31,0.31)"><g transform="" style="fill: rgb(255, 255, 255);">
<rect width="100" height="100"/>
</g></g><g transform="translate(837,434) scale(0.31,0.31)"><g transform="" style="fill: rgb(255, 255, 255);">
<rect width="100" height="100"/>
</g></g><g transform="translate(868,434) scale(2.2142857142857,2.2142857142857)"><g transform="" style="fill: rgb(255, 255, 255);">
    <path d="M0,14V0c0,0,9.15,4.38,14,0.55C14,0.55,14.24,14,0,14z"/>
</g></g><g transform="translate(0,465) scale(2.2142857142857,2.2142857142857)"><g transform="" style="fill: rgb(255, 255, 255);">
        <path d="M0-0.001h14v13.97v0.029l-3.431,0.001C4.731,13.999,0,7.731,0-0.001z"/>
</g></g><g transform="translate(31,465) scale(2.2142857142857,2.2142857142857)"><g transform="" style="fill: rgb(255, 255, 255);">
    <path d="M0,14V0h13.971H14v3.43C14,9.27,7.732,14,0,14z"/>
</g></g><g transform="translate(124,465) scale(2.2142857142857,2.2142857142857)"><g transform="" style="fill: rgb(255, 255, 255);">
    <path d="M13.999,0v14c0,0-9.151-4.381-14-0.551C-0.001,13.449-0.242,0,13.999,0z"/>
</g></g><g transform="translate(155,465) scale(2.2142857142857,2.2142857142857)"><g transform="" style="fill: rgb(255, 255, 255);">
    <path d="M13.999,13.999H0V0.028v-0.029h3.43C9.269-0.001,13.999,6.267,13.999,13.999z"/>
</g></g><g transform="translate(217,465) scale(2.2142857142857,2.2142857142857)"><g transform="" style="fill: rgb(255, 255, 255);">
    <path d="M14,14H0c0,0,4.38-9.15,0.55-14C0.55,0,14-0.24,14,14z"/>
</g></g><g transform="translate(310,465) scale(0.31,0.31)"><g transform="" style="fill: rgb(255, 255, 255);">
<rect width="100" height="100"/>
</g></g><g transform="translate(341,465) scale(0.31,0.31)"><g transform="" style="fill: rgb(255, 255, 255);">
<rect width="100" height="100"/>
</g></g><g transform="translate(372,465) scale(2.2142857142857,2.2142857142857)"><g transform="" style="fill: rgb(255, 255, 255);">
    <path d="M0,14V0h13.971H14v3.43C14,9.27,7.732,14,0,14z"/>
</g></g><g transform="translate(496,465) scale(2.2142857142857,2.2142857142857)"><g transform="" style="fill: rgb(255, 255, 255);">
        <path d="M0-0.001h14v13.97v0.029l-3.431,0.001C4.731,13.999,0,7.731,0-0.001z"/>
</g></g><g transform="translate(527,465) scale(2.2142857142857,2.2142857142857)"><g transform="" style="fill: rgb(255, 255, 255);">
    <path d="M13.999,13.999H0V0.028v-0.029h3.43C9.269-0.001,13.999,6.267,13.999,13.999z"/>
</g></g><g transform="translate(589,465) scale(2.2142857142857,2.2142857142857)"><g transform="" style="fill: rgb(255, 255, 255);">
    <path d="M13.999-0.001v14H0.029H0v-3.431C0,4.729,6.267-0.001,13.999-0.001z"/>
</g></g><g transform="translate(620,465) scale(2.2142857142857,2.2142857142857)"><g transform="" style="fill: rgb(255, 255, 255);">
    <path d="M0,14V0h13.971H14v3.43C14,9.27,7.732,14,0,14z"/>
</g></g><g transform="translate(775,465) scale(2.2142857142857,2.2142857142857)"><g transform="" style="fill: rgb(255, 255, 255);">
    <path d="M-0.001,0l14,0c0,0-4.381,9.151-0.551,14C13.448,14-0.001,14.24-0.001,0z"/>
</g></g><g transform="translate(837,465) scale(0.31,0.31)"><g transform="" style="fill: rgb(255, 255, 255);">
<rect width="100" height="100"/>
</g></g><g transform="translate(62,496) scale(2.2142857142857,2.2142857142857)"><g transform="" style="fill: rgb(255, 255, 255);">
    <path d="M13.999,0v14c0,0-9.151-4.381-14-0.551C-0.001,13.449-0.242,0,13.999,0z"/>
</g></g><g transform="translate(93,496) scale(2.2142857142857,2.2142857142857)"><g transform="" style="fill: rgb(255, 255, 255);">
    <path d="M0,14V0c0,0,9.15,4.38,14,0.55C14,0.55,14.24,14,0,14z"/>
</g></g><g transform="translate(155,496) scale(2.2142857142857,2.2142857142857)"><g transform="" style="fill: rgb(255, 255, 255);">
        <path d="M0-0.001h14v13.97v0.029l-3.431,0.001C4.731,13.999,0,7.731,0-0.001z"/>
</g></g><g transform="translate(186,496) scale(0.31,0.31)"><g transform="" style="fill: rgb(255, 255, 255);">
<rect width="100" height="100"/>
</g></g><g transform="translate(217,496) scale(2.2142857142857,2.2142857142857)"><g transform="" style="fill: rgb(255, 255, 255);">
    <path d="M0,14V0h13.971H14v3.43C14,9.27,7.732,14,0,14z"/>
</g></g><g transform="translate(310,496) scale(0.31,0.31)"><g transform="" style="fill: rgb(255, 255, 255);">
<rect width="100" height="100"/>
</g></g><g transform="translate(403,496) scale(2.2142857142857,2.2142857142857)"><g transform="" style="fill: rgb(255, 255, 255);">
    <path d="M14,14H0c0,0,4.38-9.15,0.55-14C0.55,0,14-0.24,14,14z"/>
</g></g><g transform="translate(465,496) scale(0.062,0.062)"><g transform="" style="fill: rgb(255, 255, 255);">
<path d="M250,0c138.077,0,250,111.93,250,250c0,138.077-111.923,250-250,250C111.93,500,0,388.077,0,250C0,111.93,111.93,0,250,0z"
	/>
</g></g><g transform="translate(527,496) scale(0.31,0.31)"><g transform="" style="fill: rgb(255, 255, 255);">
<rect width="100" height="100"/>
</g></g><g transform="translate(558,496) scale(0.31,0.31)"><g transform="" style="fill: rgb(255, 255, 255);">
<rect width="100" height="100"/>
</g></g><g transform="translate(589,496) scale(2.2142857142857,2.2142857142857)"><g transform="" style="fill: rgb(255, 255, 255);">
    <path d="M0,14V0h13.971H14v3.43C14,9.27,7.732,14,0,14z"/>
</g></g><g transform="translate(651,496) scale(2.2142857142857,2.2142857142857)"><g transform="" style="fill: rgb(255, 255, 255);">
    <path d="M14,14H0c0,0,4.38-9.15,0.55-14C0.55,0,14-0.24,14,14z"/>
</g></g><g transform="translate(713,496) scale(2.2142857142857,2.2142857142857)"><g transform="" style="fill: rgb(255, 255, 255);">
    <path d="M14,14H0c0,0,4.38-9.15,0.55-14C0.55,0,14-0.24,14,14z"/>
</g></g><g transform="translate(837,496) scale(2.2142857142857,2.2142857142857)"><g transform="" style="fill: rgb(255, 255, 255);">
    <path d="M-0.001,0l14,0c0,0-4.381,9.151-0.551,14C13.448,14-0.001,14.24-0.001,0z"/>
</g></g><g transform="translate(31,527) scale(0.062,0.062)"><g transform="" style="fill: rgb(255, 255, 255);">
<path d="M250,0c138.077,0,250,111.93,250,250c0,138.077-111.923,250-250,250C111.93,500,0,388.077,0,250C0,111.93,111.93,0,250,0z"
	/>
</g></g><g transform="translate(248,527) scale(0.062,0.062)"><g transform="" style="fill: rgb(255, 255, 255);">
<path d="M250,0c138.077,0,250,111.93,250,250c0,138.077-111.923,250-250,250C111.93,500,0,388.077,0,250C0,111.93,111.93,0,250,0z"
	/>
</g></g><g transform="translate(310,527) scale(0.31,0.31)"><g transform="" style="fill: rgb(255, 255, 255);">
<rect width="100" height="100"/>
</g></g><g transform="translate(341,527) scale(2.2142857142857,2.2142857142857)"><g transform="" style="fill: rgb(255, 255, 255);">
    <path d="M13.999,13.999H0V0.028v-0.029h3.43C9.269-0.001,13.999,6.267,13.999,13.999z"/>
</g></g><g transform="translate(403,527) scale(2.2142857142857,2.2142857142857)"><g transform="" style="fill: rgb(255, 255, 255);">
        <path d="M0-0.001h14v13.97v0.029l-3.431,0.001C4.731,13.999,0,7.731,0-0.001z"/>
</g></g><g transform="translate(434,527) scale(2.2142857142857,2.2142857142857)"><g transform="" style="fill: rgb(255, 255, 255);">
    <path d="M13.999,13.999H0V0.028v-0.029h3.43C9.269-0.001,13.999,6.267,13.999,13.999z"/>
</g></g><g transform="translate(496,527) scale(2.2142857142857,2.2142857142857)"><g transform="" style="fill: rgb(255, 255, 255);">
    <path d="M13.999,0v14c0,0-9.151-4.381-14-0.551C-0.001,13.449-0.242,0,13.999,0z"/>
</g></g><g transform="translate(527,527) scale(0.31,0.31)"><g transform="" style="fill: rgb(255, 255, 255);">
<rect width="100" height="100"/>
</g></g><g transform="translate(651,527) scale(2.2142857142857,2.2142857142857)"><g transform="" style="fill: rgb(255, 255, 255);">
        <path d="M0-0.001h14v13.97v0.029l-3.431,0.001C4.731,13.999,0,7.731,0-0.001z"/>
</g></g><g transform="translate(682,527) scale(0.31,0.31)"><g transform="" style="fill: rgb(255, 255, 255);">
<rect width="100" height="100"/>
</g></g><g transform="translate(713,527) scale(0.31,0.31)"><g transform="" style="fill: rgb(255, 255, 255);">
<rect width="100" height="100"/>
</g></g><g transform="translate(775,527) scale(0.062,0.062)"><g transform="" style="fill: rgb(255, 255, 255);">
<path d="M250,0c138.077,0,250,111.93,250,250c0,138.077-111.923,250-250,250C111.93,500,0,388.077,0,250C0,111.93,111.93,0,250,0z"
	/>
</g></g><g transform="translate(868,527) scale(2.2142857142857,2.2142857142857)"><g transform="" style="fill: rgb(255, 255, 255);">
    <path d="M14,14H0c0,0,4.38-9.15,0.55-14C0.55,0,14-0.24,14,14z"/>
</g></g><g transform="translate(0,558) scale(0.062,0.062)"><g transform="" style="fill: rgb(255, 255, 255);">
<path d="M250,0c138.077,0,250,111.93,250,250c0,138.077-111.923,250-250,250C111.93,500,0,388.077,0,250C0,111.93,111.93,0,250,0z"
	/>
</g></g><g transform="translate(62,558) scale(2.2142857142857,2.2142857142857)"><g transform="" style="fill: rgb(255, 255, 255);">
    <path d="M14,14H0c0,0,4.38-9.15,0.55-14C0.55,0,14-0.24,14,14z"/>
</g></g><g transform="translate(186,558) scale(0.062,0.062)"><g transform="" style="fill: rgb(255, 255, 255);">
<path d="M250,0c138.077,0,250,111.93,250,250c0,138.077-111.923,250-250,250C111.93,500,0,388.077,0,250C0,111.93,111.93,0,250,0z"
	/>
</g></g><g transform="translate(310,558) scale(0.31,0.31)"><g transform="" style="fill: rgb(255, 255, 255);">
<rect width="100" height="100"/>
</g></g><g transform="translate(341,558) scale(2.2142857142857,2.2142857142857)"><g transform="" style="fill: rgb(255, 255, 255);">
    <path d="M0,14V0h13.971H14v3.43C14,9.27,7.732,14,0,14z"/>
</g></g><g transform="translate(434,558) scale(0.31,0.31)"><g transform="" style="fill: rgb(255, 255, 255);">
<rect width="100" height="100"/>
</g></g><g transform="translate(527,558) scale(0.31,0.31)"><g transform="" style="fill: rgb(255, 255, 255);">
<rect width="100" height="100"/>
</g></g><g transform="translate(713,558) scale(2.2142857142857,2.2142857142857)"><g transform="" style="fill: rgb(255, 255, 255);">
    <path d="M-0.001,0l14,0c0,0-4.381,9.151-0.551,14C13.448,14-0.001,14.24-0.001,0z"/>
</g></g><g transform="translate(837,558) scale(2.2142857142857,2.2142857142857)"><g transform="" style="fill: rgb(255, 255, 255);">
    <path d="M13.999-0.001v14H0.029H0v-3.431C0,4.729,6.267-0.001,13.999-0.001z"/>
</g></g><g transform="translate(868,558) scale(0.31,0.31)"><g transform="" style="fill: rgb(255, 255, 255);">
<rect width="100" height="100"/>
</g></g><g transform="translate(62,589) scale(0.31,0.31)"><g transform="" style="fill: rgb(255, 255, 255);">
<rect width="100" height="100"/>
</g></g><g transform="translate(93,589) scale(2.2142857142857,2.2142857142857)"><g transform="" style="fill: rgb(255, 255, 255);">
    <path d="M0,14V0c0,0,9.15,4.38,14,0.55C14,0.55,14.24,14,0,14z"/>
</g></g><g transform="translate(217,589) scale(2.2142857142857,2.2142857142857)"><g transform="" style="fill: rgb(255, 255, 255);">
    <path d="M14,14H0c0,0,4.38-9.15,0.55-14C0.55,0,14-0.24,14,14z"/>
</g></g><g transform="translate(279,589) scale(2.2142857142857,2.2142857142857)"><g transform="" style="fill: rgb(255, 255, 255);">
    <path d="M13.999,0v14c0,0-9.151-4.381-14-0.551C-0.001,13.449-0.242,0,13.999,0z"/>
</g></g><g transform="translate(310,589) scale(2.2142857142857,2.2142857142857)"><g transform="" style="fill: rgb(255, 255, 255);">
    <path d="M0,14V0h13.971H14v3.43C14,9.27,7.732,14,0,14z"/>
</g></g><g transform="translate(434,589) scale(2.2142857142857,2.2142857142857)"><g transform="" style="fill: rgb(255, 255, 255);">
        <path d="M0-0.001h14v13.97v0.029l-3.431,0.001C4.731,13.999,0,7.731,0-0.001z"/>
</g></g><g transform="translate(465,589) scale(2.2142857142857,2.2142857142857)"><g transform="" style="fill: rgb(255, 255, 255);">
    <path d="M0,14V0c0,0,9.15,4.38,14,0.55C14,0.55,14.24,14,0,14z"/>
</g></g><g transform="translate(527,589) scale(2.2142857142857,2.2142857142857)"><g transform="" style="fill: rgb(255, 255, 255);">
        <path d="M0-0.001h14v13.97v0.029l-3.431,0.001C4.731,13.999,0,7.731,0-0.001z"/>
</g></g><g transform="translate(558,589) scale(0.31,0.31)"><g transform="" style="fill: rgb(255, 255, 255);">
<rect width="100" height="100"/>
</g></g><g transform="translate(589,589) scale(0.31,0.31)"><g transform="" style="fill: rgb(255, 255, 255);">
<rect width="100" height="100"/>
</g></g><g transform="translate(620,589) scale(2.2142857142857,2.2142857142857)"><g transform="" style="fill: rgb(255, 255, 255);">
    <path d="M13.999,13.999H0V0.028v-0.029h3.43C9.269-0.001,13.999,6.267,13.999,13.999z"/>
</g></g><g transform="translate(837,589) scale(2.2142857142857,2.2142857142857)"><g transform="" style="fill: rgb(255, 255, 255);">
        <path d="M0-0.001h14v13.97v0.029l-3.431,0.001C4.731,13.999,0,7.731,0-0.001z"/>
</g></g><g transform="translate(868,589) scale(2.2142857142857,2.2142857142857)"><g transform="" style="fill: rgb(255, 255, 255);">
    <path d="M0,14V0h13.971H14v3.43C14,9.27,7.732,14,0,14z"/>
</g></g><g transform="translate(0,620) scale(0.062,0.062)"><g transform="" style="fill: rgb(255, 255, 255);">
<path d="M250,0c138.077,0,250,111.93,250,250c0,138.077-111.923,250-250,250C111.93,500,0,388.077,0,250C0,111.93,111.93,0,250,0z"
	/>
</g></g><g transform="translate(62,620) scale(2.2142857142857,2.2142857142857)"><g transform="" style="fill: rgb(255, 255, 255);">
    <path d="M-0.001,0l14,0c0,0-4.381,9.151-0.551,14C13.448,14-0.001,14.24-0.001,0z"/>
</g></g><g transform="translate(124,620) scale(0.062,0.062)"><g transform="" style="fill: rgb(255, 255, 255);">
<path d="M250,0c138.077,0,250,111.93,250,250c0,138.077-111.923,250-250,250C111.93,500,0,388.077,0,250C0,111.93,111.93,0,250,0z"
	/>
</g></g><g transform="translate(186,620) scale(2.2142857142857,2.2142857142857)"><g transform="" style="fill: rgb(255, 255, 255);">
    <path d="M13.999,0v14c0,0-9.151-4.381-14-0.551C-0.001,13.449-0.242,0,13.999,0z"/>
</g></g><g transform="translate(217,620) scale(2.2142857142857,2.2142857142857)"><g transform="" style="fill: rgb(255, 255, 255);">
    <path d="M0,14V0h13.971H14v3.43C14,9.27,7.732,14,0,14z"/>
</g></g><g transform="translate(341,620) scale(0.062,0.062)"><g transform="" style="fill: rgb(255, 255, 255);">
<path d="M250,0c138.077,0,250,111.93,250,250c0,138.077-111.923,250-250,250C111.93,500,0,388.077,0,250C0,111.93,111.93,0,250,0z"
	/>
</g></g><g transform="translate(496,620) scale(2.2142857142857,2.2142857142857)"><g transform="" style="fill: rgb(255, 255, 255);">
    <path d="M14,14H0c0,0,4.38-9.15,0.55-14C0.55,0,14-0.24,14,14z"/>
</g></g><g transform="translate(620,620) scale(0.31,0.31)"><g transform="" style="fill: rgb(255, 255, 255);">
<rect width="100" height="100"/>
</g></g><g transform="translate(651,620) scale(0.31,0.31)"><g transform="" style="fill: rgb(255, 255, 255);">
<rect width="100" height="100"/>
</g></g><g transform="translate(682,620) scale(0.31,0.31)"><g transform="" style="fill: rgb(255, 255, 255);">
<rect width="100" height="100"/>
</g></g><g transform="translate(713,620) scale(0.31,0.31)"><g transform="" style="fill: rgb(255, 255, 255);">
<rect width="100" height="100"/>
</g></g><g transform="translate(744,620) scale(2.2142857142857,2.2142857142857)"><g transform="" style="fill: rgb(255, 255, 255);">
    <path d="M13.999,13.999H0V0.028v-0.029h3.43C9.269-0.001,13.999,6.267,13.999,13.999z"/>
</g></g><g transform="translate(806,620) scale(2.2142857142857,2.2142857142857)"><g transform="" style="fill: rgb(255, 255, 255);">
    <path d="M14,14H0c0,0,4.38-9.15,0.55-14C0.55,0,14-0.24,14,14z"/>
</g></g><g transform="translate(248,651) scale(0.062,0.062)"><g transform="" style="fill: rgb(255, 255, 255);">
<path d="M250,0c138.077,0,250,111.93,250,250c0,138.077-111.923,250-250,250C111.93,500,0,388.077,0,250C0,111.93,111.93,0,250,0z"
	/>
</g></g><g transform="translate(434,651) scale(0.062,0.062)"><g transform="" style="fill: rgb(255, 255, 255);">
<path d="M250,0c138.077,0,250,111.93,250,250c0,138.077-111.923,250-250,250C111.93,500,0,388.077,0,250C0,111.93,111.93,0,250,0z"
	/>
</g></g><g transform="translate(496,651) scale(2.2142857142857,2.2142857142857)"><g transform="" style="fill: rgb(255, 255, 255);">
    <path d="M-0.001,0l14,0c0,0-4.381,9.151-0.551,14C13.448,14-0.001,14.24-0.001,0z"/>
</g></g><g transform="translate(589,651) scale(2.2142857142857,2.2142857142857)"><g transform="" style="fill: rgb(255, 255, 255);">
    <path d="M13.999,0v14c0,0-9.151-4.381-14-0.551C-0.001,13.449-0.242,0,13.999,0z"/>
</g></g><g transform="translate(620,651) scale(0.31,0.31)"><g transform="" style="fill: rgb(255, 255, 255);">
<rect width="100" height="100"/>
</g></g><g transform="translate(744,651) scale(0.31,0.31)"><g transform="" style="fill: rgb(255, 255, 255);">
<rect width="100" height="100"/>
</g></g><g transform="translate(806,651) scale(2.2142857142857,2.2142857142857)"><g transform="" style="fill: rgb(255, 255, 255);">
        <path d="M0-0.001h14v13.97v0.029l-3.431,0.001C4.731,13.999,0,7.731,0-0.001z"/>
</g></g><g transform="translate(837,651) scale(0.31,0.31)"><g transform="" style="fill: rgb(255, 255, 255);">
<rect width="100" height="100"/>
</g></g><g transform="translate(868,651) scale(2.2142857142857,2.2142857142857)"><g transform="" style="fill: rgb(255, 255, 255);">
    <path d="M0,14V0c0,0,9.15,4.38,14,0.55C14,0.55,14.24,14,0,14z"/>
</g></g><g transform="translate(279,682) scale(2.2142857142857,2.2142857142857)"><g transform="" style="fill: rgb(255, 255, 255);">
    <path d="M13.999,0v14c0,0-9.151-4.381-14-0.551C-0.001,13.449-0.242,0,13.999,0z"/>
</g></g><g transform="translate(310,682) scale(2.2142857142857,2.2142857142857)"><g transform="" style="fill: rgb(255, 255, 255);">
    <path d="M0,14V0c0,0,9.15,4.38,14,0.55C14,0.55,14.24,14,0,14z"/>
</g></g><g transform="translate(372,682) scale(2.2142857142857,2.2142857142857)"><g transform="" style="fill: rgb(255, 255, 255);">
    <path d="M14,14H0c0,0,4.38-9.15,0.55-14C0.55,0,14-0.24,14,14z"/>
</g></g><g transform="translate(558,682) scale(0.062,0.062)"><g transform="" style="fill: rgb(255, 255, 255);">
<path d="M250,0c138.077,0,250,111.93,250,250c0,138.077-111.923,250-250,250C111.93,500,0,388.077,0,250C0,111.93,111.93,0,250,0z"
	/>
</g></g><g transform="translate(620,682) scale(0.31,0.31)"><g transform="" style="fill: rgb(255, 255, 255);">
<rect width="100" height="100"/>
</g></g><g transform="translate(682,682) scale(0.062,0.062)"><g transform="" style="fill: rgb(255, 255, 255);">
<path d="M250,0c138.077,0,250,111.93,250,250c0,138.077-111.923,250-250,250C111.93,500,0,388.077,0,250C0,111.93,111.93,0,250,0z"
	/>
</g></g><g transform="translate(744,682) scale(0.31,0.31)"><g transform="" style="fill: rgb(255, 255, 255);">
<rect width="100" height="100"/>
</g></g><g transform="translate(837,682) scale(2.2142857142857,2.2142857142857)"><g transform="" style="fill: rgb(255, 255, 255);">
    <path d="M-0.001,0l14,0c0,0-4.381,9.151-0.551,14C13.448,14-0.001,14.24-0.001,0z"/>
</g></g><g transform="translate(248,713) scale(0.062,0.062)"><g transform="" style="fill: rgb(255, 255, 255);">
<path d="M250,0c138.077,0,250,111.93,250,250c0,138.077-111.923,250-250,250C111.93,500,0,388.077,0,250C0,111.93,111.93,0,250,0z"
	/>
</g></g><g transform="translate(341,713) scale(2.2142857142857,2.2142857142857)"><g transform="" style="fill: rgb(255, 255, 255);">
    <path d="M13.999,0v14c0,0-9.151-4.381-14-0.551C-0.001,13.449-0.242,0,13.999,0z"/>
</g></g><g transform="translate(372,713) scale(2.2142857142857,2.2142857142857)"><g transform="" style="fill: rgb(255, 255, 255);">
    <path d="M0,14V0h13.971H14v3.43C14,9.27,7.732,14,0,14z"/>
</g></g><g transform="translate(434,713) scale(2.2142857142857,2.2142857142857)"><g transform="" style="fill: rgb(255, 255, 255);">
    <path d="M13.999,0v14c0,0-9.151-4.381-14-0.551C-0.001,13.449-0.242,0,13.999,0z"/>
</g></g><g transform="translate(465,713) scale(0.31,0.31)"><g transform="" style="fill: rgb(255, 255, 255);">
<rect width="100" height="100"/>
</g></g><g transform="translate(496,713) scale(2.2142857142857,2.2142857142857)"><g transform="" style="fill: rgb(255, 255, 255);">
    <path d="M13.999,13.999H0V0.028v-0.029h3.43C9.269-0.001,13.999,6.267,13.999,13.999z"/>
</g></g><g transform="translate(620,713) scale(0.31,0.31)"><g transform="" style="fill: rgb(255, 255, 255);">
<rect width="100" height="100"/>
</g></g><g transform="translate(744,713) scale(0.31,0.31)"><g transform="" style="fill: rgb(255, 255, 255);">
<rect width="100" height="100"/>
</g></g><g transform="translate(775,713) scale(0.31,0.31)"><g transform="" style="fill: rgb(255, 255, 255);">
<rect width="100" height="100"/>
</g></g><g transform="translate(806,713) scale(2.2142857142857,2.2142857142857)"><g transform="" style="fill: rgb(255, 255, 255);">
    <path d="M0,14V0c0,0,9.15,4.38,14,0.55C14,0.55,14.24,14,0,14z"/>
</g></g><g transform="translate(279,744) scale(2.2142857142857,2.2142857142857)"><g transform="" style="fill: rgb(255, 255, 255);">
    <path d="M13.999-0.001v14H0.029H0v-3.431C0,4.729,6.267-0.001,13.999-0.001z"/>
</g></g><g transform="translate(310,744) scale(2.2142857142857,2.2142857142857)"><g transform="" style="fill: rgb(255, 255, 255);">
    <path d="M0,14V0c0,0,9.15,4.38,14,0.55C14,0.55,14.24,14,0,14z"/>
</g></g><g transform="translate(496,744) scale(2.2142857142857,2.2142857142857)"><g transform="" style="fill: rgb(255, 255, 255);">
        <path d="M0-0.001h14v13.97v0.029l-3.431,0.001C4.731,13.999,0,7.731,0-0.001z"/>
</g></g><g transform="translate(527,744) scale(2.2142857142857,2.2142857142857)"><g transform="" style="fill: rgb(255, 255, 255);">
    <path d="M0,14V0c0,0,9.15,4.38,14,0.55C14,0.55,14.24,14,0,14z"/>
</g></g><g transform="translate(620,744) scale(0.31,0.31)"><g transform="" style="fill: rgb(255, 255, 255);">
<rect width="100" height="100"/>
</g></g><g transform="translate(651,744) scale(0.31,0.31)"><g transform="" style="fill: rgb(255, 255, 255);">
<rect width="100" height="100"/>
</g></g><g transform="translate(682,744) scale(0.31,0.31)"><g transform="" style="fill: rgb(255, 255, 255);">
<rect width="100" height="100"/>
</g></g><g transform="translate(713,744) scale(0.31,0.31)"><g transform="" style="fill: rgb(255, 255, 255);">
<rect width="100" height="100"/>
</g></g><g transform="translate(744,744) scale(0.31,0.31)"><g transform="" style="fill: rgb(255, 255, 255);">
<rect width="100" height="100"/>
</g></g><g transform="translate(868,744) scale(0.062,0.062)"><g transform="" style="fill: rgb(255, 255, 255);">
<path d="M250,0c138.077,0,250,111.93,250,250c0,138.077-111.923,250-250,250C111.93,500,0,388.077,0,250C0,111.93,111.93,0,250,0z"
	/>
</g></g><g transform="translate(248,775) scale(2.2142857142857,2.2142857142857)"><g transform="" style="fill: rgb(255, 255, 255);">
    <path d="M13.999,0v14c0,0-9.151-4.381-14-0.551C-0.001,13.449-0.242,0,13.999,0z"/>
</g></g><g transform="translate(279,775) scale(2.2142857142857,2.2142857142857)"><g transform="" style="fill: rgb(255, 255, 255);">
    <path d="M0,14V0h13.971H14v3.43C14,9.27,7.732,14,0,14z"/>
</g></g><g transform="translate(372,775) scale(2.2142857142857,2.2142857142857)"><g transform="" style="fill: rgb(255, 255, 255);">
    <path d="M13.999-0.001v14H0.029H0v-3.431C0,4.729,6.267-0.001,13.999-0.001z"/>
</g></g><g transform="translate(403,775) scale(2.2142857142857,2.2142857142857)"><g transform="" style="fill: rgb(255, 255, 255);">
    <path d="M13.999,13.999H0V0.028v-0.029h3.43C9.269-0.001,13.999,6.267,13.999,13.999z"/>
</g></g><g transform="translate(620,775) scale(0.31,0.31)"><g transform="" style="fill: rgb(255, 255, 255);">
<rect width="100" height="100"/>
</g></g><g transform="translate(682,775) scale(2.2142857142857,2.2142857142857)"><g transform="" style="fill: rgb(255, 255, 255);">
    <path d="M-0.001,0l14,0c0,0-4.381,9.151-0.551,14C13.448,14-0.001,14.24-0.001,0z"/>
</g></g><g transform="translate(744,775) scale(0.31,0.31)"><g transform="" style="fill: rgb(255, 255, 255);">
<rect width="100" height="100"/>
</g></g><g transform="translate(775,775) scale(0.31,0.31)"><g transform="" style="fill: rgb(255, 255, 255);">
<rect width="100" height="100"/>
</g></g><g transform="translate(806,775) scale(0.31,0.31)"><g transform="" style="fill: rgb(255, 255, 255);">
<rect width="100" height="100"/>
</g></g><g transform="translate(837,775) scale(2.2142857142857,2.2142857142857)"><g transform="" style="fill: rgb(255, 255, 255);">
    <path d="M0,14V0c0,0,9.15,4.38,14,0.55C14,0.55,14.24,14,0,14z"/>
</g></g><g transform="translate(341,806) scale(2.2142857142857,2.2142857142857)"><g transform="" style="fill: rgb(255, 255, 255);">
    <path d="M13.999-0.001v14H0.029H0v-3.431C0,4.729,6.267-0.001,13.999-0.001z"/>
</g></g><g transform="translate(372,806) scale(0.31,0.31)"><g transform="" style="fill: rgb(255, 255, 255);">
<rect width="100" height="100"/>
</g></g><g transform="translate(403,806) scale(2.2142857142857,2.2142857142857)"><g transform="" style="fill: rgb(255, 255, 255);">
    <path d="M0,14V0h13.971H14v3.43C14,9.27,7.732,14,0,14z"/>
</g></g><g transform="translate(496,806) scale(2.2142857142857,2.2142857142857)"><g transform="" style="fill: rgb(255, 255, 255);">
    <path d="M13.999-0.001v14H0.029H0v-3.431C0,4.729,6.267-0.001,13.999-0.001z"/>
</g></g><g transform="translate(527,806) scale(0.31,0.31)"><g transform="" style="fill: rgb(255, 255, 255);">
<rect width="100" height="100"/>
</g></g><g transform="translate(558,806) scale(0.31,0.31)"><g transform="" style="fill: rgb(255, 255, 255);">
<rect width="100" height="100"/>
</g></g><g transform="translate(589,806) scale(0.31,0.31)"><g transform="" style="fill: rgb(255, 255, 255);">
<rect width="100" height="100"/>
</g></g><g transform="translate(620,806) scale(0.31,0.31)"><g transform="" style="fill: rgb(255, 255, 255);">
<rect width="100" height="100"/>
</g></g><g transform="translate(744,806) scale(0.31,0.31)"><g transform="" style="fill: rgb(255, 255, 255);">
<rect width="100" height="100"/>
</g></g><g transform="translate(775,806) scale(0.31,0.31)"><g transform="" style="fill: rgb(255, 255, 255);">
<rect width="100" height="100"/>
</g></g><g transform="translate(806,806) scale(2.2142857142857,2.2142857142857)"><g transform="" style="fill: rgb(255, 255, 255);">
    <path d="M0,14V0h13.971H14v3.43C14,9.27,7.732,14,0,14z"/>
</g></g><g transform="translate(868,806) scale(0.062,0.062)"><g transform="" style="fill: rgb(255, 255, 255);">
<path d="M250,0c138.077,0,250,111.93,250,250c0,138.077-111.923,250-250,250C111.93,500,0,388.077,0,250C0,111.93,111.93,0,250,0z"
	/>
</g></g><g transform="translate(341,837) scale(2.2142857142857,2.2142857142857)"><g transform="" style="fill: rgb(255, 255, 255);">
        <path d="M0-0.001h14v13.97v0.029l-3.431,0.001C4.731,13.999,0,7.731,0-0.001z"/>
</g></g><g transform="translate(372,837) scale(0.31,0.31)"><g transform="" style="fill: rgb(255, 255, 255);">
<rect width="100" height="100"/>
</g></g><g transform="translate(465,837) scale(2.2142857142857,2.2142857142857)"><g transform="" style="fill: rgb(255, 255, 255);">
    <path d="M13.999,0v14c0,0-9.151-4.381-14-0.551C-0.001,13.449-0.242,0,13.999,0z"/>
</g></g><g transform="translate(496,837) scale(0.31,0.31)"><g transform="" style="fill: rgb(255, 255, 255);">
<rect width="100" height="100"/>
</g></g><g transform="translate(527,837) scale(0.31,0.31)"><g transform="" style="fill: rgb(255, 255, 255);">
<rect width="100" height="100"/>
</g></g><g transform="translate(558,837) scale(0.31,0.31)"><g transform="" style="fill: rgb(255, 255, 255);">
<rect width="100" height="100"/>
</g></g><g transform="translate(589,837) scale(0.31,0.31)"><g transform="" style="fill: rgb(255, 255, 255);">
<rect width="100" height="100"/>
</g></g><g transform="translate(620,837) scale(0.31,0.31)"><g transform="" style="fill: rgb(255, 255, 255);">
<rect width="100" height="100"/>
</g></g><g transform="translate(744,837) scale(0.31,0.31)"><g transform="" style="fill: rgb(255, 255, 255);">
<rect width="100" height="100"/>
</g></g><g transform="translate(837,837) scale(2.2142857142857,2.2142857142857)"><g transform="" style="fill: rgb(255, 255, 255);">
    <path d="M14,14H0c0,0,4.38-9.15,0.55-14C0.55,0,14-0.24,14,14z"/>
</g></g><g transform="translate(248,868) scale(0.062,0.062)"><g transform="" style="fill: rgb(255, 255, 255);">
<path d="M250,0c138.077,0,250,111.93,250,250c0,138.077-111.923,250-250,250C111.93,500,0,388.077,0,250C0,111.93,111.93,0,250,0z"
	/>
</g></g><g transform="translate(310,868) scale(0.062,0.062)"><g transform="" style="fill: rgb(255, 255, 255);">
<path d="M250,0c138.077,0,250,111.93,250,250c0,138.077-111.923,250-250,250C111.93,500,0,388.077,0,250C0,111.93,111.93,0,250,0z"
	/>
</g></g><g transform="translate(372,868) scale(2.2142857142857,2.2142857142857)"><g transform="" style="fill: rgb(255, 255, 255);">
        <path d="M0-0.001h14v13.97v0.029l-3.431,0.001C4.731,13.999,0,7.731,0-0.001z"/>
</g></g><g transform="translate(403,868) scale(0.31,0.31)"><g transform="" style="fill: rgb(255, 255, 255);">
<rect width="100" height="100"/>
</g></g><g transform="translate(434,868) scale(2.2142857142857,2.2142857142857)"><g transform="" style="fill: rgb(255, 255, 255);">
    <path d="M0,14V0c0,0,9.15,4.38,14,0.55C14,0.55,14.24,14,0,14z"/>
</g></g><g transform="translate(527,868) scale(2.2142857142857,2.2142857142857)"><g transform="" style="fill: rgb(255, 255, 255);">
    <path d="M-0.001,0l14,0c0,0-4.381,9.151-0.551,14C13.448,14-0.001,14.24-0.001,0z"/>
</g></g><g transform="translate(620,868) scale(2.2142857142857,2.2142857142857)"><g transform="" style="fill: rgb(255, 255, 255);">
        <path d="M0-0.001h14v13.97v0.029l-3.431,0.001C4.731,13.999,0,7.731,0-0.001z"/>
</g></g><g transform="translate(651,868) scale(2.2142857142857,2.2142857142857)"><g transform="" style="fill: rgb(255, 255, 255);">
    <path d="M0,14V0c0,0,9.15,4.38,14,0.55C14,0.55,14.24,14,0,14z"/>
</g></g><g transform="translate(713,868) scale(2.2142857142857,2.2142857142857)"><g transform="" style="fill: rgb(255, 255, 255);">
    <path d="M13.999,0v14c0,0-9.151-4.381-14-0.551C-0.001,13.449-0.242,0,13.999,0z"/>
</g></g><g transform="translate(744,868) scale(2.2142857142857,2.2142857142857)"><g transform="" style="fill: rgb(255, 255, 255);">
    <path d="M0,14V0h13.971H14v3.43C14,9.27,7.732,14,0,14z"/>
</g></g><g transform="translate(837,868) scale(2.2142857142857,2.2142857142857)"><g transform="" style="fill: rgb(255, 255, 255);">
    <path d="M-0.001,0l14,0c0,0-4.381,9.151-0.551,14C13.448,14-0.001,14.24-0.001,0z"/>
</g></g><g transform="translate(0,0) scale(2.17, 2.17)"><g transform=" translate(0,100) scale(1,-1) " style="fill: rgb(59, 126, 161);">
<g>
</g>
<g>
	<path fill="none" d="M15.02,34.145L15.004,85H66.25C76.589,85,85,76.414,85,65.86V15H33.78C23.436,15,15.02,23.586,15.02,34.145z"
		/>
	<path d="M66.25,0H33.78C15.16,0,0.02,15.32,0.02,34.14L0,100h66.25C84.86,100,100,84.68,100,65.86V34.14V0H66.25z M85,65.86
		C85,76.414,76.589,85,66.25,85H15.004l0.016-50.855C15.02,23.586,23.436,15,33.78,15H85V65.86z"/>
</g>
</g></g><g transform="translate(682,0) scale(2.17, 2.17)"><g transform="" style="fill: rgb(59, 126, 161);">
<g>
</g>
<g>
	<path fill="none" d="M15.02,34.145L15.004,85H66.25C76.589,85,85,76.414,85,65.86V15H33.78C23.436,15,15.02,23.586,15.02,34.145z"
		/>
	<path d="M66.25,0H33.78C15.16,0,0.02,15.32,0.02,34.14L0,100h66.25C84.86,100,100,84.68,100,65.86V34.14V0H66.25z M85,65.86
		C85,76.414,76.589,85,66.25,85H15.004l0.016-50.855C15.02,23.586,23.436,15,33.78,15H85V65.86z"/>
</g>
</g></g><g transform="translate(0,682) scale(2.17, 2.17)"><g transform="" style="fill: rgb(59, 126, 161);">
<g>
</g>
<g>
	<path fill="none" d="M15.02,34.145L15.004,85H66.25C76.589,85,85,76.414,85,65.86V15H33.78C23.436,15,15.02,23.586,15.02,34.145z"
		/>
	<path d="M66.25,0H33.78C15.16,0,0.02,15.32,0.02,34.14L0,100h66.25C84.86,100,100,84.68,100,65.86V34.14V0H66.25z M85,65.86
		C85,76.414,76.589,85,66.25,85H15.004l0.016-50.855C15.02,23.586,23.436,15,33.78,15H85V65.86z"/>
</g>
</g></g><g transform="translate(62,62) scale(0.93, 0.93)"><g transform="" style="fill: rgb(253, 181, 21);">
<path d="M21.468,99.999c-6.65,0-12.966-6.875-13.959-13.225L0.003-0.001L88.13,5.638c6.21,0.93,11.099,6.823,11.105,13.866
	l0.762,80.495H21.468z"/>
</g></g><g transform="translate(744,62) scale(0.93, 0.93)"><g transform=" translate(100, 0) scale(-1,1) " style="fill: rgb(253, 181, 21);">
<path d="M21.468,99.999c-6.65,0-12.966-6.875-13.959-13.225L0.003-0.001L88.13,5.638c6.21,0.93,11.099,6.823,11.105,13.866
	l0.762,80.495H21.468z"/>
</g></g><g transform="translate(62,744) scale(0.93, 0.93)"><g transform=" translate(0,100) scale(1,-1) " style="fill: rgb(253, 181, 21);">
<path d="M21.468,99.999c-6.65,0-12.966-6.875-13.959-13.225L0.003-0.001L88.13,5.638c6.21,0.93,11.099,6.823,11.105,13.866
	l0.762,80.495H21.468z"/>
</g></g></g></svg>